<?xml version="1.0" encoding="UTF-8"?>
<svg id="Layer_2" data-name="Layer 2" xmlns="http://www.w3.org/2000/svg" viewBox="0 0 1535.42 681.86">
  <defs>
    <style>
      .cls-1 {
        fill: #003049;
      }

      .cls-2 {
        fill: #f77f00;
      }
    </style>
  </defs>
  <g id="Capa_1" data-name="Capa 1">
    <g>
      <g>
        <path class="cls-2" d="M936.55,637.06c1.15,10.34,6.56,15.92,16.25,15.92,7.22,0,12.31-2.46,12.31-7.88,0-4.92-2.3-7.55-20.84-11.32-31.34-6.24-43.81-14.77-43.81-36.92s18.21-37.25,49.23-37.25c33.8,0,50.87,18.38,52.02,43.98h-38.4c-.82-9.35-5.74-15.1-13.62-15.1-7.06,0-11.16,3.12-11.16,7.88,0,5.58,4.92,8.21,19.86,10.67,35.28,5.91,44.8,18.21,44.8,36.92,0,23.3-18.71,37.91-50.38,37.91-35.12,0-53.82-17.39-54.81-44.8h38.56Z"/>
        <path class="cls-2" d="M1017.12,616.88h-11.49v-27.9h11.49v-20.84h36.1v20.84h24.61v27.9h-24.61v23.3c0,10.67,6.56,11.98,13.78,11.98,3.77,0,7.22-.33,10.83-.98v27.9c-8.86,1.8-16.74,2.79-24.12,2.79-24.29,0-36.59-11.16-36.59-39.05v-25.93Z"/>
        <path class="cls-2" d="M1082.43,588.98h36.1v47.59c0,11.49,2.13,15.75,9.35,15.75,6.73,0,10.34-4.1,10.34-15.75v-47.59h36.1v90.42h-33.64l-.66-16.25c-4.59,13.95-14.77,18.71-26.91,18.71-18.54,0-30.69-12.47-30.69-34.46v-58.42Z"/>
        <path class="cls-2" d="M1247.67,679.4l-.49-14.44c-5.58,11.16-16.08,16.9-29.04,16.9-23.14,0-38.4-18.87-38.4-47.75s15.26-47.59,38.4-47.59c12.96,0,22.97,5.91,28.72,16.74v-44.3h34.46v120.44h-33.64ZM1230.93,614.42c-9.35,0-14.77,7.22-14.77,19.53s5.58,20.02,14.93,20.02,14.6-7.38,14.6-19.86-5.42-19.69-14.77-19.69Z"/>
        <path class="cls-2" d="M1288.04,558.79h36.1v25.27h-36.1v-25.27ZM1288.04,588.98h36.1v90.42h-36.1v-90.42Z"/>
        <path class="cls-2" d="M1381.07,586.52c31.01,0,51.53,19.2,51.53,47.59s-20.51,47.75-51.53,47.75-51.52-19.03-51.52-47.75,20.51-47.59,51.52-47.59ZM1381.07,653.96c9.68,0,15.1-7.06,15.1-19.86s-5.42-19.69-15.1-19.69-15.1,7.22-15.1,19.69,5.42,19.86,15.1,19.86Z"/>
        <path class="cls-2" d="M1469.19,647.73c.49,7.88,4.59,11.16,11.32,11.16,5.42,0,8.7-2.13,8.7-5.58,0-5.09-7.55-6.24-18.87-7.88-14.11-1.97-35.28-6.07-35.28-28.39,0-18.54,14.44-30.52,43.81-30.52s43.16,11.65,45.13,33.8h-35.44c-.66-7.06-3.94-10.83-10.17-10.83-5.25,0-7.06,2.62-7.06,5.25,0,5.42,7.22,6.73,18.05,8.37,14.6,1.97,36.26,5.58,36.26,28.55,0,19.86-16.25,30.19-44.96,30.19-30.69,0-45.62-11.81-46.93-34.13h35.44Z"/>
      </g>
      <path class="cls-1" d="M134.85,0c69.24,0,102.04,40.09,102.04,40.09l-43.73,69.25s-21.87-20.04-47.38-20.04-43.73,18.22-43.73,43.73,18.22,43.73,43.73,43.73,47.38-20.04,47.38-20.04l43.73,69.25s-32.8,40.09-102.04,40.09C58.31,266.04,0,207.73,0,133.02S58.31,0,134.85,0Z"/>
      <path class="cls-1" d="M346.89,92.93h58.31V5.47h94.76v255.11h-94.76v-87.47h-58.31v87.47h-94.75V5.47h94.75v87.47Z"/>
      <path class="cls-1" d="M611.12,187.69h109.33v72.89h-204.09V5.47h196.8v72.89h-102.04v18.22h94.76v72.89h-94.76v18.22Z"/>
      <path class="cls-1" d="M853.47,0c69.25,0,102.05,40.09,102.05,40.09l-43.73,69.25s-21.87-20.04-47.38-20.04-43.73,18.22-43.73,43.73,18.22,43.73,43.73,43.73,47.38-20.04,47.38-20.04l43.73,69.25s-32.8,40.09-102.05,40.09c-76.53,0-134.84-58.31-134.84-133.02S776.94,0,853.47,0Z"/>
      <path class="cls-1" d="M590.84,367.18c0,54.07-37.29,91.36-100.68,91.36-14.92,0-33.56-1.87-33.56-1.87v83.9h-96.95v-261.02s52.2-3.73,111.86-3.73c82.04,0,119.32,37.29,119.32,91.36ZM471.52,387.69c13.05,0,22.37-9.32,22.37-20.51s-9.32-20.51-22.37-20.51h-14.91v41.02h14.91Z"/>
      <path class="cls-1" d="M744.22,546.17c-85.77,0-145.43-59.66-145.43-136.1s59.66-136.1,145.43-136.1,145.42,59.66,145.42,136.1-59.66,136.1-145.42,136.1ZM744.22,365.32c-22.37,0-41.02,18.64-41.02,44.75s18.64,44.75,41.02,44.75,41.02-18.64,41.02-44.75-18.64-44.75-41.02-44.75Z"/>
      <path class="cls-1" d="M993.95,540.57h-96.95v-261.02h96.95v261.02Z"/>
      <path class="cls-1" d="M1107.68,424.98v115.59h-96.95v-261.02h108.14l63.39,115.59v-115.59h96.95v261.02h-108.14l-63.39-115.59Z"/>
      <path class="cls-1" d="M1535.42,279.55v85.76h-70.85v175.26h-96.95v-175.26h-70.85v-85.76h238.65Z"/>
      <path class="cls-1" d="M1144.53,137.48c24.52-25.04,36.47-64.45,36.47-120.05V5.29h-86.82v12.14c0,56.73-12.96,71.6-35.64,73.67V5.29h-86.82v255.15h86.82v-91.38c2.57-.04,5.11-.14,7.63-.29l43.32,91.67h88.09v-18.28l-53.04-104.68Z"/>
    </g>
  </g>
</svg>