<?xml version="1.0" encoding="UTF-8"?>
<svg id="Layer_2" data-name="Layer 2" xmlns="http://www.w3.org/2000/svg" viewBox="0 0 1535.42 726">
  <defs>
    <style>
      .cls-1 {
        fill: #f77f00;
        font-family: Delight-ExtraBold, Delight;
        font-size: 164.09px;
        font-weight: 700;
      }

      .cls-2 {
        letter-spacing: -.01em;
      }

      .cls-3 {
        fill: #eae2b7;
      }

      .cls-4 {
        letter-spacing: -.02em;
      }
    </style>
  </defs>
  <g id="Capa_1" data-name="Capa 1">
    <g>
      <text class="cls-1" transform="translate(897 679.4)"><tspan class="cls-2" x="0" y="0">Studi</tspan><tspan class="cls-4" x="417.95" y="0">o</tspan><tspan class="cls-2" x="520.67" y="0">s</tspan></text>
      <path class="cls-3" d="M134.85,0c69.24,0,102.04,40.09,102.04,40.09l-43.73,69.25s-21.87-20.04-47.38-20.04-43.73,18.22-43.73,43.73,18.22,43.73,43.73,43.73,47.38-20.04,47.38-20.04l43.73,69.25s-32.8,40.09-102.04,40.09C58.31,266.04,0,207.73,0,133.02S58.31,0,134.85,0Z"/>
      <path class="cls-3" d="M346.89,92.93h58.31V5.47h94.76v255.11h-94.76v-87.47h-58.31v87.47h-94.75V5.47h94.75v87.47Z"/>
      <path class="cls-3" d="M611.12,187.69h109.33v72.89h-204.09V5.47h196.8v72.89h-102.04v18.22h94.76v72.89h-94.76v18.22Z"/>
      <path class="cls-3" d="M853.47,0c69.25,0,102.05,40.09,102.05,40.09l-43.73,69.25s-21.87-20.04-47.38-20.04-43.73,18.22-43.73,43.73,18.22,43.73,43.73,43.73,47.38-20.04,47.38-20.04l43.73,69.25s-32.8,40.09-102.05,40.09c-76.53,0-134.84-58.31-134.84-133.02S776.94,0,853.47,0Z"/>
      <path class="cls-3" d="M590.84,367.18c0,54.07-37.29,91.36-100.68,91.36-14.92,0-33.56-1.87-33.56-1.87v83.9h-96.95v-261.02s52.2-3.73,111.86-3.73c82.04,0,119.32,37.29,119.32,91.36ZM471.52,387.69c13.05,0,22.37-9.32,22.37-20.51s-9.32-20.51-22.37-20.51h-14.91v41.02h14.91Z"/>
      <path class="cls-3" d="M744.22,546.17c-85.77,0-145.43-59.66-145.43-136.1s59.66-136.1,145.43-136.1,145.42,59.66,145.42,136.1-59.66,136.1-145.42,136.1ZM744.22,365.32c-22.37,0-41.02,18.64-41.02,44.75s18.64,44.75,41.02,44.75,41.02-18.64,41.02-44.75-18.64-44.75-41.02-44.75Z"/>
      <path class="cls-3" d="M993.95,540.57h-96.95v-261.02h96.95v261.02Z"/>
      <path class="cls-3" d="M1107.68,424.98v115.59h-96.95v-261.02h108.14l63.39,115.59v-115.59h96.95v261.02h-108.14l-63.39-115.59Z"/>
      <path class="cls-3" d="M1535.42,279.55v85.76h-70.85v175.26h-96.95v-175.26h-70.85v-85.76h238.65Z"/>
      <path class="cls-3" d="M1144.53,137.48c24.52-25.04,36.47-64.45,36.47-120.05V5.29h-86.82v12.14c0,56.73-12.96,71.6-35.64,73.67V5.29h-86.82v255.15h86.82v-91.38c2.57-.04,5.11-.14,7.63-.29l43.32,91.67h88.09v-18.28l-53.04-104.68Z"/>
    </g>
  </g>
</svg>