<?xml version="1.0" encoding="UTF-8"?>
<svg id="Layer_2" data-name="Layer 2" xmlns="http://www.w3.org/2000/svg" viewBox="0 0 1677.35 335.62">
  <defs>
    <style>
      .cls-1 {
        fill: #f77f00;
        font-family: Delight-ExtraBold, Delight;
        font-size: 117.38px;
        font-weight: 700;
      }

      .cls-2 {
        letter-spacing: -.02em;
      }

      .cls-3 {
        letter-spacing: -.01em;
      }

      .cls-4 {
        fill: #eae2b7;
      }

      .cls-5 {
        letter-spacing: -.01em;
      }
    </style>
  </defs>
  <g id="Capa_1" data-name="Capa 1">
    <g>
      <text class="cls-1" transform="translate(1231.01 302.28)"><tspan class="cls-3" x="0" y="0">Studi</tspan><tspan class="cls-2" x="298.97" y="0">o</tspan><tspan class="cls-5" x="372.46" y="0">s</tspan></text>
      <path class="cls-4" d="M96.46,0c49.53,0,73,28.68,73,28.68l-31.28,49.53s-15.64-14.34-33.89-14.34-31.28,13.03-31.28,31.28,13.03,31.28,31.28,31.28,33.89-14.34,33.89-14.34l31.28,49.53s-23.46,28.68-73,28.68C41.71,190.31,0,148.6,0,95.16S41.71,0,96.46,0Z"/>
      <path class="cls-4" d="M248.14,66.48h41.71V3.91h67.78v182.49h-67.78v-62.57h-41.71v62.57h-67.78V3.91h67.78v62.57Z"/>
      <path class="cls-4" d="M437.16,134.26h78.21v52.14h-145.99V3.91h140.78v52.14h-73v13.04h67.78v52.14h-67.78v13.03Z"/>
      <path class="cls-4" d="M610.52,0c49.53,0,73,28.68,73,28.68l-31.28,49.53s-15.64-14.34-33.89-14.34-31.28,13.03-31.28,31.28,13.04,31.28,31.28,31.28,33.89-14.34,33.89-14.34l31.28,49.53s-23.46,28.68-73,28.68c-54.75,0-96.46-41.71-96.46-95.16S555.78,0,610.52,0Z"/>
      <path class="cls-4" d="M1016.96,65.18c0,37.8-26.07,63.87-70.39,63.87-10.43,0-23.46-1.3-23.46-1.3v58.66h-67.78V3.91s36.5-2.61,78.21-2.61c57.36,0,83.43,26.07,83.43,63.87ZM933.53,79.51c9.12,0,15.64-6.52,15.64-14.34s-6.52-14.34-15.64-14.34h-10.43v28.68h10.43Z"/>
      <path class="cls-4" d="M1124.19,190.31c-59.96,0-101.67-41.71-101.67-95.16S1064.22,0,1124.19,0s101.67,41.71,101.67,95.16-41.71,95.16-101.67,95.16ZM1124.19,63.87c-15.64,0-28.68,13.03-28.68,31.28s13.03,31.28,28.68,31.28,28.68-13.03,28.68-31.28-13.03-31.28-28.68-31.28Z"/>
      <path class="cls-4" d="M1298.79,186.4h-67.78V3.91h67.78v182.49Z"/>
      <path class="cls-4" d="M1378.3,105.58v80.82h-67.78V3.91h75.6l44.32,80.82V3.91h67.78v182.49h-75.6l-44.32-80.82Z"/>
      <path class="cls-4" d="M1677.35,3.91v59.96h-49.53v122.53h-67.78V63.87h-49.53V3.91h166.85Z"/>
      <path class="cls-4" d="M818.73,98.35c17.54-17.91,26.09-46.1,26.09-85.88V3.78h-62.1v8.69c0,40.58-9.27,51.22-25.5,52.7V3.78h-62.1v182.52h62.1v-65.37c1.84-.03,3.65-.1,5.46-.2l30.99,65.57h63.01v-13.07l-37.94-74.88Z"/>
    </g>
  </g>
</svg>